<?xml version="1.0" encoding="UTF-8" standalone="no"?>
<svg width="200px" height="200px" viewBox="0 0 200 200" version="1.1" xmlns="http://www.w3.org/2000/svg" xmlns:xlink="http://www.w3.org/1999/xlink">
    <!-- Generator: Sketch 3.8.3 (29802) - http://www.bohemiancoding.com/sketch -->
    <title>Group</title>
    <desc>Created with Sketch.</desc>
    <defs></defs>
    <g id="Epic-1" stroke="none" stroke-width="1" fill="none" fill-rule="evenodd">
        <g id="Desktop---Screen-2" transform="translate(-620.000000, -100.000000)" fill="#005381">
            <g id="Group" transform="translate(620.000000, 100.000000)">
                <path d="M99.889967,63.4932673 C79.8206601,63.4932673 63.4932673,79.8206601 63.4932673,99.889967 C63.4932673,119.959274 79.8206601,136.287327 99.889967,136.287327 C119.959274,136.287327 136.286667,119.959274 136.286667,99.889967 C136.286667,79.8206601 119.959274,63.4932673 99.889967,63.4932673 M99.889967,140.527591 C77.4820462,140.527591 59.2523432,122.297228 59.2523432,99.889967 C59.2523432,77.4827063 77.4820462,59.2530033 99.889967,59.2530033 C122.297888,59.2530033 140.527591,77.4827063 140.527591,99.889967 C140.527591,122.297228 122.297888,140.527591 99.889967,140.527591" id="Fill-1"></path>
                <path d="M197.659802,102.010429 L155.015578,102.010429 C153.84462,102.010429 152.895446,101.061254 152.895446,99.890297 C152.895446,98.7186799 153.84462,97.770165 155.015578,97.770165 L197.659802,97.770165 C198.830759,97.770165 199.779934,98.7186799 199.779934,99.890297 C199.779934,101.061254 198.830759,102.010429 197.659802,102.010429" id="Fill-3"></path>
                <path d="M99.889967,46.8848845 C98.7190099,46.8848845 97.769835,45.9357096 97.769835,44.7647525 L97.769835,2.12052805 C97.769835,0.948910891 98.7190099,0.000396039604 99.889967,0.000396039604 C101.060924,0.000396039604 102.010099,0.948910891 102.010099,2.12052805 L102.010099,44.7647525 C102.010099,45.9357096 101.060924,46.8848845 99.889967,46.8848845" id="Fill-5"></path>
                <path d="M99.889967,199.780198 C98.7190099,199.780198 97.769835,198.830363 97.769835,197.660066 L97.769835,155.015842 C97.769835,153.844884 98.7190099,152.89571 99.889967,152.89571 C101.060924,152.89571 102.010099,153.844884 102.010099,155.015842 L102.010099,197.660066 C102.010099,198.830363 101.060924,199.780198 99.889967,199.780198" id="Fill-7"></path>
                <path d="M44.7644884,102.010429 L2.12026403,102.010429 C0.949306931,102.010429 0.000132013201,101.061254 0.000132013201,99.890297 C0.000132013201,98.7186799 0.949306931,97.770165 2.12026403,97.770165 L44.7644884,97.770165 C45.9354455,97.770165 46.8846205,98.7186799 46.8846205,99.890297 C46.8846205,101.061254 45.9354455,102.010429 44.7644884,102.010429" id="Fill-9"></path>
                <path d="M154.704224,162.479274 C154.16165,162.479274 153.619076,162.272013 153.205215,161.858152 L135.714785,144.366403 C134.886403,143.53802 134.886403,142.196766 135.714785,141.368383 C136.543168,140.54 137.884422,140.54 138.712805,141.368383 L156.203234,158.860132 C157.031617,159.688515 157.031617,161.029769 156.203234,161.858152 C155.789373,162.272013 155.246799,162.479274 154.704224,162.479274" id="Fill-11"></path>
                <path d="M137.006799,58.5329373 C136.464224,58.5329373 135.92165,58.3256766 135.507789,57.9118152 C134.679406,57.0840924 134.679406,55.7408581 135.507789,54.9137954 L151.998878,38.4227063 C152.827261,37.5943234 154.168515,37.5943234 154.996898,38.4227063 C155.825281,39.250429 155.825281,40.5930033 154.996898,41.4207261 L138.505809,57.9118152 C138.091947,58.3256766 137.549373,58.5329373 137.006799,58.5329373" id="Fill-13"></path>
                <path d="M45.0757756,162.479274 C44.5332013,162.479274 43.9906271,162.272013 43.5767657,161.858152 C42.7483828,161.029769 42.7483828,159.688515 43.5767657,158.860132 L61.0671947,141.368383 C61.8955776,140.54 63.2368317,140.54 64.0652145,141.368383 C64.8935974,142.196766 64.8935974,143.53802 64.0652145,144.366403 L46.5747855,161.858152 C46.1609241,162.272013 45.6183498,162.479274 45.0757756,162.479274" id="Fill-15"></path>
                <path d="M62.5661386,59.0326733 C62.0235644,59.0326733 61.4809901,58.8254125 61.0671287,58.4115512 L43.5766997,40.9211221 C42.7483168,40.0933993 42.7483168,38.7508251 43.5766997,37.9231023 C44.4050825,37.0947195 45.7463366,37.0947195 46.5747195,37.9231023 L64.0651485,55.4135314 C64.8935314,56.2412541 64.8935314,57.5838284 64.0651485,58.4115512 C63.6512871,58.8254125 63.1087129,59.0326733 62.5661386,59.0326733" id="Fill-17"></path>
            </g>
        </g>
    </g>
</svg>